<?xml version="1.0" encoding="UTF-8"?>
<svg width="66px" height="66px" viewBox="0 0 66 66" version="1.1" xmlns="http://www.w3.org/2000/svg" xmlns:xlink="http://www.w3.org/1999/xlink">
    <!-- Generator: Sketch 45.1 (43504) - http://www.bohemiancoding.com/sketch -->
    <title>user</title>
    <desc>Created with Sketch.</desc>
    <defs>
        <polygon id="path-1" points="0.06 0 0.06 66 38.632 66 38.632 0 0.06 -8.52651283e-14"></polygon>
    </defs>
    <g id="Page-1" stroke="none" stroke-width="1" fill="none" fill-rule="evenodd">
        <g id="shutterstock_635640287" transform="translate(0.000000, -198.000000)">
            <g id="user" transform="translate(0.000000, 198.000000)">
                <g id="Group-103">
                    <mask id="mask-2" fill="white">
                        <use xlink:href="#path-1"></use>
                    </mask>
                    <g id="Clip-101"></g>
                    <path d="M26.692,2.829 C22.535,2.829 17.58,4.775 17.58,14.049 C17.58,22.413 21.753,29.48 26.692,29.48 C31.631,29.48 35.804,22.413 35.804,14.049 C35.804,4.775 30.849,2.829 26.692,2.829 Z M26.692,32.309 C19.997,32.309 14.752,24.288 14.752,14.049 C14.752,1.369 23.102,0 26.692,0 C30.282,0 38.632,1.369 38.632,14.049 C38.632,24.288 33.387,32.309 26.692,32.309 L26.692,32.309 Z" id="Fill-100" fill="#7F8FA6" mask="url(#mask-2)"></path>
                    <path d="M1.555,66 C0.813,66 0.193,65.421 0.143,64.681 C0.024,62.883 -0.882,46.953 3.963,41.77 C5.041,40.617 6.382,40.008 7.842,40.008 L8.617,40.012 C8.904,40.016 9.179,40.02 9.439,40.02 C12.049,40.02 13.39,39.539 14.941,36.558 C15.184,36.087 15.664,35.795 16.195,35.795 C16.423,35.795 16.643,35.85 16.847,35.957 C17.539,36.317 17.808,37.173 17.448,37.865 C15.046,42.477 12.391,42.843 9.169,42.843 L7.846,42.837 C7.411,42.837 6.755,42.927 6.031,43.699 C3.329,46.59 2.639,55.635 2.869,62.503 C2.881,62.875 3.187,63.171 3.559,63.171 L9.928,63.171 C10.31,63.171 10.62,62.862 10.62,62.48 L10.62,54.057 C10.62,53.277 11.254,52.643 12.034,52.643 C12.814,52.643 13.448,53.277 13.448,54.057 L13.448,62.48 C13.448,62.862 13.758,63.171 14.139,63.171 L30.958,63.171 C31.738,63.171 32.372,63.806 32.372,64.585 C32.372,65.365 31.738,66 30.958,66 L1.555,66" id="Fill-102" fill="#7F8FA6" mask="url(#mask-2)"></path>
                </g>
                <path d="M49.85,44.943 C48.308,44.943 47.053,46.198 47.053,47.74 C47.053,49.282 48.308,50.537 49.85,50.537 C51.391,50.537 52.646,49.282 52.646,47.74 C52.646,46.198 51.391,44.943 49.85,44.943 Z M49.85,57.577 C49.07,57.577 48.435,56.942 48.435,56.163 L48.435,53.668 C48.435,53.376 48.251,53.116 47.976,53.017 C45.732,52.217 44.225,50.096 44.225,47.74 C44.225,44.638 46.748,42.114 49.85,42.114 C52.951,42.114 55.474,44.638 55.474,47.74 C55.474,50.096 53.966,52.217 51.722,53.018 C51.447,53.117 51.263,53.377 51.263,53.669 L51.263,56.163 C51.263,56.942 50.629,57.577 49.85,57.577 L49.85,57.577 Z" id="Fill-104" fill="#7F8FA6"></path>
                <path d="M49.85,28.097 C45.986,28.097 42.843,31.241 42.843,35.106 C42.843,35.488 43.152,35.797 43.534,35.797 L56.165,35.797 C56.547,35.797 56.856,35.488 56.856,35.106 C56.856,31.241 53.713,28.097 49.85,28.097 Z M37.218,38.626 C36.837,38.626 36.527,38.935 36.527,39.317 L36.527,49.846 C36.527,57.193 42.504,63.171 49.85,63.171 C57.195,63.171 63.172,57.193 63.172,49.846 L63.172,39.317 C63.172,38.935 62.862,38.626 62.481,38.626 L37.218,38.626 Z M49.85,66 C40.944,66 33.699,58.753 33.699,49.846 L33.699,37.211 C33.699,36.432 34.333,35.797 35.113,35.797 L39.324,35.797 C39.705,35.797 40.015,35.488 40.015,35.106 C40.015,29.681 44.426,25.268 49.85,25.268 C55.273,25.268 59.684,29.681 59.684,35.106 C59.684,35.488 59.994,35.797 60.376,35.797 L64.586,35.797 C65.366,35.797 66,36.432 66,37.211 L66,49.846 C66,58.753 58.755,66 49.85,66 L49.85,66 Z" id="Fill-105" fill="#7F8FA6"></path>
            </g>
        </g>
    </g>
</svg>